<svg width="180" height="49" viewBox="0 0 180 49" fill="none" xmlns="http://www.w3.org/2000/svg">
<path d="M147.914 0V26.3842C148.029 26.1816 148.164 26.0055 148.316 25.8559V0.40283H179.597V31.6547H152.61C152.61 31.7898 152.61 31.9225 152.61 32.0576H180V0H147.911H147.914Z" fill="black"/>
<path d="M32.0889 48.9499H0V16.8923H32.0889V48.9499ZM0.40283 48.5471H31.6861V17.2952H0.40283V48.5471Z" fill="black"/>
<path d="M47.2444 43.2693C49.0029 41.892 50.6408 40.6087 52.3775 39.2482C56.0464 42.0777 60.0313 43.2886 64.3032 40.7824C66.9759 39.2145 67.784 36.5804 67.5403 33.4566C67.2605 33.5941 67.0482 33.64 66.9204 33.7678C61.9514 38.7176 55.2649 38.7513 50.2476 33.845C44.5308 28.2536 44.3667 18.564 49.8906 12.7796C55.0188 7.41017 61.7656 7.54525 67.8201 13.2862C68.0276 11.9547 68.2181 10.7269 68.428 9.36884H74.7237C74.7696 10.0249 74.8492 10.5822 74.8419 11.137C74.7382 19.5457 74.9432 27.9738 74.4077 36.3561C74.0194 42.4251 70.3722 46.545 64.4021 48.2456C57.8314 50.1174 51.0725 48.1515 47.2468 43.2717L47.2444 43.2693ZM67.6175 23.1688C67.6344 19.085 64.5107 15.8913 60.451 15.8407C56.3166 15.79 53.0143 19.0705 53.0601 23.1881C53.1036 27.214 56.3793 30.4752 60.3642 30.4608C64.3732 30.4439 67.6006 27.1995 67.6175 23.1712" fill="#132116"/>
<path d="M152.608 36.9977C152.608 35.3357 152.617 33.6931 152.613 32.0576C152.613 31.9225 152.613 31.7899 152.613 31.6548C152.61 31.1169 152.605 30.579 152.601 30.0435C152.591 29.1679 152.557 28.2778 152.4 27.419C152.152 26.0562 151.255 25.2746 150.07 25.236C149.363 25.2119 148.765 25.4194 148.319 25.8584C148.167 26.0079 148.03 26.184 147.916 26.3866C147.776 26.6279 147.665 26.9053 147.583 27.2237C147.398 27.9473 147.359 28.7216 147.349 29.4766C147.323 31.9491 147.34 34.4215 147.34 37.0025H143.35C143.35 34.518 143.369 32.089 143.34 29.6599C143.331 28.8277 143.285 27.9763 143.099 27.1682C142.834 26.0128 142.1 25.265 140.829 25.2385C139.553 25.2143 138.789 25.9452 138.487 27.0813C138.253 27.957 138.159 28.8905 138.14 29.7998C138.094 32.1565 138.125 34.5156 138.125 36.9688H134.234V21.6636H137.703C137.804 22.1943 137.915 22.7708 138.06 23.5162C139.223 22.0303 140.593 21.2005 142.419 21.3356C144.182 21.4682 145.514 22.3004 146.452 23.9528C146.891 23.2798 147.371 22.7129 147.919 22.2811C148.049 22.1774 148.184 22.0809 148.321 21.9941C149.067 21.5213 149.925 21.2825 150.941 21.338C153.881 21.4996 155.893 23.0651 156.219 26.0851C156.417 27.9304 156.496 29.7902 156.544 31.6596C156.547 31.7947 156.552 31.9274 156.554 32.0624C156.593 33.7003 156.612 35.3454 156.67 37.0025H152.613L152.608 36.9977Z" fill="#132116"/>
<path d="M23.9138 0.13269H32.0814C36.293 12.3768 40.5046 24.6257 44.7693 37.0291H36.4981C35.702 34.6193 34.9157 32.2409 34.0811 29.7202H22.0203C21.205 32.1396 20.4065 34.5059 19.5744 36.976H11.25C15.4882 24.6499 19.6757 12.4636 23.9138 0.13269ZM31.8764 22.368C30.5931 18.4144 29.3894 14.6973 28.0217 10.4833C26.6492 14.7359 25.4455 18.4675 24.1864 22.368H31.8764Z" fill="#132116"/>
<path d="M161.137 12.7458C160.208 12.4299 159.328 12.1307 158.452 11.8316C158.749 9.89467 160.859 8.10968 163.071 7.90947C165.447 7.69479 167.457 8.39914 168.643 10.5653C169.823 12.7169 169.637 14.8951 168.043 16.7766C167.02 17.9851 165.773 19.0078 164.617 20.1029C164.222 20.4792 163.793 20.8193 163.168 21.3572H169.676V24.1843H158.237V22.2473C160.138 20.4937 162.097 18.699 164.036 16.8851C164.584 16.3737 165.126 15.8431 165.582 15.2545C166.62 13.9133 166.472 12.2634 165.298 11.4143C164.072 10.5291 162.444 10.8885 161.45 12.2682C161.359 12.3937 161.279 12.5263 161.134 12.7458" fill="#132116"/>
<path d="M99.4435 23.094C99.4748 15.187 105.821 8.86231 113.714 8.87196C121.674 8.88161 128.09 15.3414 128.042 23.2991C127.994 31.2206 121.474 37.6104 113.511 37.5429C105.693 37.4753 99.4121 31.0252 99.4435 23.094ZM120.774 23.1785C120.774 19.2105 117.59 16.0385 113.644 16.0771C109.801 16.1157 106.668 19.2491 106.617 23.0989C106.567 27.0645 109.702 30.2437 113.67 30.2533C117.677 30.263 120.769 27.1826 120.772 23.1785" fill="#132116"/>
<path d="M88.0284 36.9856H81.0645V9.36641H87.2878C87.488 10.4374 87.6858 11.4891 87.9439 12.8616C90.7782 9.50632 94.3096 8.58246 98.6346 9.26269C98.1763 11.4722 97.7373 13.607 97.2741 15.8334C96.6663 15.8913 96.1115 15.9444 95.5543 15.9974C91.2245 16.4123 88.5494 18.9716 88.2623 23.3473C88.0211 26.9969 88.0911 30.6682 88.0308 34.3298C88.0163 35.1741 88.0308 36.0208 88.0308 36.9832" fill="#132116"/>
</svg>
