<svg width="32" height="33" viewBox="0 0 32 33" fill="none" xmlns="http://www.w3.org/2000/svg">
<path d="M16 20.2659C18.3472 20.2659 20.25 18.3631 20.25 16.0159C20.25 13.6687 18.3472 11.7659 16 11.7659C13.6528 11.7659 11.75 13.6687 11.75 16.0159C11.75 18.3631 13.6528 20.2659 16 20.2659Z" stroke="white" stroke-width="3" stroke-linecap="round" stroke-linejoin="round"/>
<path d="M22 4.01587H10C6.68629 4.01587 4 6.70216 4 10.0159V22.0159C4 25.3296 6.68629 28.0159 10 28.0159H22C25.3137 28.0159 28 25.3296 28 22.0159V10.0159C28 6.70216 25.3137 4.01587 22 4.01587Z" stroke="white" stroke-width="3" stroke-linecap="round" stroke-linejoin="round"/>
<path d="M22.5 11.5159C23.6046 11.5159 24.5 10.6204 24.5 9.51587C24.5 8.4113 23.6046 7.51587 22.5 7.51587C21.3954 7.51587 20.5 8.4113 20.5 9.51587C20.5 10.6204 21.3954 11.5159 22.5 11.5159Z" fill="white"/>
</svg>
