<svg width="32" height="33" viewBox="0 0 32 33" fill="none" xmlns="http://www.w3.org/2000/svg">
<path d="M26.5 4.51587H5.5C4.94772 4.51587 4.5 4.96358 4.5 5.51587V26.5159C4.5 27.0682 4.94772 27.5159 5.5 27.5159H26.5C27.0523 27.5159 27.5 27.0682 27.5 26.5159V5.51587C27.5 4.96358 27.0523 4.51587 26.5 4.51587Z" stroke="white" stroke-width="3" stroke-linecap="round" stroke-linejoin="round"/>
<path d="M15.5 15.0159V22.0159" stroke="white" stroke-width="3" stroke-linecap="round" stroke-linejoin="round"/>
<path d="M10.5 15.0159V22.0159" stroke="white" stroke-width="3" stroke-linecap="round" stroke-linejoin="round"/>
<path d="M15.5 18.5159C15.5 17.5876 15.8687 16.6974 16.5251 16.041C17.1815 15.3846 18.0717 15.0159 19 15.0159C19.9283 15.0159 20.8185 15.3846 21.4749 16.041C22.1313 16.6974 22.5 17.5876 22.5 18.5159V22.0159" stroke="white" stroke-width="3" stroke-linecap="round" stroke-linejoin="round"/>
<path d="M10.5 12.0159C11.6046 12.0159 12.5 11.1204 12.5 10.0159C12.5 8.9113 11.6046 8.01587 10.5 8.01587C9.39543 8.01587 8.5 8.9113 8.5 10.0159C8.5 11.1204 9.39543 12.0159 10.5 12.0159Z" fill="white"/>
</svg>
