<svg width="33" height="33" viewBox="0 0 33 33" fill="none" xmlns="http://www.w3.org/2000/svg">
<path d="M5.89995 22.141C4.41106 19.629 3.89026 16.6599 4.43533 13.7912C4.9804 10.9224 6.55385 8.35124 8.8603 6.56037C11.1667 4.76951 14.0476 3.8821 16.9619 4.06475C19.8763 4.24739 22.6238 5.48752 24.6886 7.55233C26.7534 9.61714 27.9935 12.3646 28.1762 15.279C28.3588 18.1934 27.4714 21.0742 25.6805 23.3806C23.8897 25.6871 21.3185 27.2605 18.4498 27.8056C15.581 28.3507 12.6119 27.8299 10.0999 26.341V26.341L5.94995 27.516C5.77992 27.5657 5.59964 27.5688 5.42802 27.5249C5.25639 27.481 5.09974 27.3917 4.97447 27.2664C4.84921 27.1412 4.75995 26.9845 4.71605 26.8129C4.67214 26.6413 4.67522 26.461 4.72495 26.291L5.89995 22.141Z" stroke="white" stroke-width="2.5" stroke-linecap="round" stroke-linejoin="round"/>
<path d="M10.2249 12.9534C10.2381 12.1676 10.5603 11.4186 11.1219 10.8688C11.6834 10.3189 12.439 10.0125 13.2249 10.0159H13.6624C13.8343 10.0162 14.0031 10.0613 14.1522 10.1468C14.3012 10.2323 14.4254 10.3552 14.5124 10.5034L15.4374 12.0409C15.5265 12.1843 15.5768 12.3485 15.5833 12.5172C15.5899 12.6859 15.5526 12.8535 15.4749 13.0034L14.8874 14.2034C15.094 14.9567 15.493 15.6432 16.0453 16.1955C16.5976 16.7478 17.2841 17.1469 18.0374 17.3534L19.2374 16.7659C19.3874 16.6883 19.5549 16.6509 19.7236 16.6575C19.8924 16.6641 20.0565 16.7143 20.1999 16.8034L21.7374 17.7284C21.8856 17.8154 22.0085 17.9396 22.094 18.0887C22.1795 18.2377 22.2247 18.4065 22.2249 18.5784V19.0159C22.2283 19.8018 21.9219 20.5574 21.3721 21.1189C20.8222 21.6805 20.0732 22.0028 19.2874 22.0159C18.0945 22.0259 16.9116 21.7983 15.8076 21.3464C14.7035 20.8945 13.7005 20.2274 12.857 19.3838C12.0135 18.5403 11.3463 17.5373 10.8944 16.4333C10.4425 15.3292 10.2149 14.1463 10.2249 12.9534V12.9534Z" stroke="white" stroke-width="2.5" stroke-linecap="round" stroke-linejoin="round"/>
</svg>
