<svg width="32" height="33" viewBox="0 0 32 33" fill="none" xmlns="http://www.w3.org/2000/svg">
<path d="M20.5 16.0159L13.5 11.5159V20.5159L20.5 16.0159Z" stroke="white" stroke-width="3" stroke-linecap="round" stroke-linejoin="round"/>
<path d="M3 16.0157C3 19.7407 3.3875 21.9157 3.675 23.0407C3.75427 23.346 3.90418 23.6283 4.11262 23.865C4.32106 24.1017 4.58221 24.2861 4.875 24.4032C9.0625 26.0032 16 25.9657 16 25.9657C16 25.9657 22.9375 26.0032 27.125 24.4032C27.4178 24.2861 27.6789 24.1017 27.8874 23.865C28.0958 23.6283 28.2457 23.346 28.325 23.0407C28.6125 21.9157 29 19.7407 29 16.0157C29 12.2907 28.6125 10.1157 28.325 8.99075C28.2457 8.6855 28.0958 8.40316 27.8874 8.16649C27.6789 7.92982 27.4178 7.74545 27.125 7.62825C22.9375 6.02825 16 6.06575 16 6.06575C16 6.06575 9.0625 6.02825 4.875 7.62825C4.58221 7.74545 4.32106 7.92982 4.11262 8.16649C3.90418 8.40316 3.75427 8.6855 3.675 8.99075C3.3875 10.1157 3 12.2907 3 16.0157Z" stroke="white" stroke-width="3" stroke-linecap="round" stroke-linejoin="round"/>
</svg>
